<svg xmlns="http://www.w3.org/2000/svg" width="337.606" height="550.998" viewBox="0 0 337.606 550.998"><path d="M-2.8,2c63.893-.7,91.722,141.536,0,140.672ZM76.514,36.1c25.575-1.248,64.073,22.258,45.76,46.891-18.083,24.323-63.168-2.859-62.03-31.971C64.425,42.3,68.69,40.958,76.514,36.1ZM81.6,102.176c31.36-1.625,71.71,32.187,41.693,54.35C92.656,179.146,33.448,127.8,81.6,102.176Zm-36.608,40.5c25.859,2.89,59.74,56.069,27.456,71.4-28.771,17.692-55.548-41.825-36.61-68.207ZM-2.8,152.264c21.212,9.476,32.582,55.589,3.051,65.007L-2.8,216.206Zm0,398.571V379.258C33.686,400.122,43.753,450.41,68.379,483.7c33.491,45.269,98.707,58.415,167.786,66.074v1.065H-2.8Zm337.606,0c-21.105.289-58.566,5.867-75.249-2.131-15.124-51.766,47.881-37.908,61.013-71.4,9.944-25.362-4.208-48.439,14.236-63.942Z" transform="translate(2.8 -1.997)" fill="#a1a1a1" fill-rule="evenodd" opacity="0.6"/></svg>